<svg width="450" height="450" viewBox="0 0 450 450" fill="none" xmlns="http://www.w3.org/2000/svg">
<circle cx="225" cy="225" r="225" fill="black"/>
<path d="M185.532 129.974H159.663C129.2 129.974 113.969 142.899 113.969 168.75C113.969 178.818 116.927 187.797 122.843 195.689C128.76 203.444 138.075 207.321 150.789 207.321H152.866L112.08 265.281C110.57 267.73 109.814 269.227 109.814 269.771C109.814 271.812 110.696 272.832 112.458 272.832H116.234C117.871 272.832 119.067 272.288 119.822 271.2L163.44 209.158C164.824 206.981 165.517 205.213 165.517 203.852C165.517 199.498 163.314 197.321 158.908 197.321H150.6C145.313 197.321 140.781 196.369 137.005 194.464C133.228 192.559 130.459 190.11 128.697 187.117C125.172 181.267 123.41 175.212 123.41 168.954C123.41 149.77 135.557 140.178 159.852 140.178H184.021V268.751C184.021 269.839 184.399 270.792 185.154 271.608C185.784 272.424 186.665 272.832 187.798 272.832H189.686C190.819 272.832 191.763 272.424 192.518 271.608C193.148 270.792 193.462 269.839 193.462 268.751V139.566C193.462 135.892 192.959 133.375 191.952 132.014C190.819 130.654 188.679 129.974 185.532 129.974Z" fill="white"/>
<path d="M289.668 129.974H291.745C293.255 129.974 294.262 130.518 294.766 131.606C295.269 132.559 295.521 133.375 295.521 134.055C295.521 134.736 295.332 135.416 294.955 136.096V135.892L263.044 198.75C262.037 200.383 261.345 201.403 260.967 201.811V268.751C260.967 269.839 260.589 270.792 259.834 271.608C259.079 272.424 258.198 272.832 257.19 272.832H255.302C254.295 272.832 253.414 272.424 252.659 271.608C251.903 270.792 251.526 269.839 251.526 268.751V201.607C250.896 200.927 250.33 200.11 249.826 199.158L215.461 136.096C215.083 135.416 214.895 134.736 214.895 134.055C214.895 133.375 215.146 132.559 215.65 131.606C216.153 130.518 217.16 129.974 218.671 129.974H220.937C222.196 129.974 223.266 130.586 224.147 131.81L256.246 191.403L286.647 131.198C287.15 130.382 288.157 129.974 289.668 129.974Z" fill="white"/>
<path d="M203.848 79.3774V370.622" stroke="#C1A3F2" stroke-width="10" stroke-linecap="round"/>
<path d="M81.4555 318.139C81.0714 318.139 80.6488 318.084 80.1878 317.973C79.7524 317.863 79.3298 317.684 78.9201 317.433C78.5359 317.184 78.203 316.88 77.9213 316.521C77.6652 316.132 77.5371 315.677 77.5371 315.15C77.5371 314.376 77.5627 313.615 77.6139 312.867C77.6908 312.091 77.7676 311.33 77.8444 310.584V310.624L78.0749 307.843C78.1518 306.846 78.2158 305.754 78.267 304.563C78.3182 303.373 78.3567 302.167 78.3823 300.951C78.4335 299.706 78.4719 298.487 78.4975 297.297C78.5231 296.106 78.5359 295.014 78.5359 294.017C78.5359 293.434 78.5231 292.854 78.4975 292.273C78.4975 291.663 78.4975 291.055 78.4975 290.445C78.4719 289.92 78.4591 289.338 78.4591 288.702C78.4591 288.037 78.4591 287.429 78.4591 286.874C78.4591 286.293 78.5231 285.824 78.6512 285.463C78.8048 285.075 79.2146 284.882 79.8805 284.882C80.4695 284.882 81.0842 285.048 81.7244 285.38C82.3903 285.713 82.8513 286.183 83.1074 286.791H83.069C83.197 287.097 83.2867 287.594 83.3379 288.287C83.4147 288.951 83.4659 289.546 83.4915 290.071C83.9269 289.353 84.4135 288.591 84.9513 287.788C85.5148 286.986 86.1166 286.251 86.7569 285.588C87.3972 284.896 88.0758 284.328 88.7929 283.885C89.51 283.442 90.2783 283.221 91.0979 283.221C92.1735 283.221 92.993 283.511 93.5565 284.093C94.1199 284.674 94.5297 285.408 94.7858 286.293C95.0419 287.152 95.1827 288.079 95.2084 289.076C95.234 290.043 95.2468 290.93 95.2468 291.733V292.065C95.2468 292.397 95.234 292.728 95.2084 293.062C95.2084 293.366 95.1571 293.657 95.0547 293.934C94.9779 294.182 94.8242 294.391 94.5937 294.557C94.3888 294.722 94.0943 294.805 93.7102 294.805C93.3004 294.805 92.865 294.75 92.404 294.64C91.943 294.501 91.5076 294.308 91.0979 294.057C90.7137 293.808 90.3808 293.504 90.0991 293.145C89.8174 292.756 89.6637 292.314 89.6381 291.816C89.6381 291.595 89.6381 291.372 89.6381 291.151C89.6381 290.93 89.6509 290.709 89.6765 290.488C89.6765 290.35 89.6765 290.182 89.6765 289.988C89.7021 289.767 89.7149 289.559 89.7149 289.365C88.8954 290.252 88.1655 291.344 87.5252 292.645C86.9106 293.947 86.3471 295.33 85.8349 296.797C85.3483 298.266 84.9257 299.746 84.5672 301.24C84.2087 302.707 83.9013 304.036 83.6452 305.226V305.352C83.5684 306.211 83.5172 307.055 83.4915 307.884C83.4659 308.715 83.4403 309.574 83.4147 310.458C83.3891 311.455 83.3507 312.465 83.2995 313.49C83.2739 314.514 83.2098 315.511 83.1074 316.479C83.0562 317.006 82.9025 317.406 82.6464 317.684C82.4159 317.988 82.019 318.139 81.4555 318.139ZM111.727 309.878C111.727 310.707 111.509 311.566 111.074 312.452C110.664 313.337 110.127 314.155 109.461 314.901C108.795 315.622 108.027 316.217 107.156 316.687C106.311 317.157 105.465 317.393 104.62 317.393C103.417 317.393 102.379 317.144 101.509 316.644C100.638 316.119 99.8822 315.426 99.242 314.57C98.6018 313.683 98.0768 312.686 97.6669 311.581C97.2828 310.473 96.9756 309.338 96.745 308.175C96.5145 306.985 96.3481 305.809 96.2457 304.646C96.1687 303.456 96.1304 302.376 96.1304 301.406C96.1304 300.577 96.1687 299.595 96.2457 298.46C96.3481 297.325 96.5017 296.147 96.7065 294.931C96.937 293.713 97.2444 292.507 97.6286 291.317C98.0127 290.126 98.4865 289.061 99.05 288.12C99.6389 287.18 100.33 286.419 101.124 285.836C101.944 285.256 102.879 284.965 103.929 284.965C104.748 284.965 105.478 285.145 106.118 285.504C106.784 285.864 107.335 286.349 107.77 286.959C108.231 287.539 108.577 288.217 108.808 288.993C109.064 289.767 109.192 290.571 109.192 291.4C109.192 292.48 108.961 293.657 108.5 294.931C108.039 296.202 107.437 297.435 106.695 298.626C105.978 299.816 105.158 300.896 104.236 301.863C103.34 302.805 102.443 303.526 101.547 304.023C101.598 304.521 101.701 305.254 101.854 306.223C102.008 307.165 102.213 308.105 102.469 309.047C102.751 309.988 103.071 310.805 103.429 311.498C103.813 312.189 104.262 312.535 104.774 312.535C105.03 312.535 105.248 312.452 105.427 312.286C105.632 312.118 105.811 311.897 105.965 311.621C106.118 311.345 106.246 311.041 106.349 310.707C106.477 310.375 106.592 310.056 106.695 309.752L106.925 309.172C106.976 309.089 107.002 309.034 107.002 309.006C107.028 308.979 107.053 308.936 107.079 308.881C107.258 308.522 107.425 308.19 107.578 307.884C107.757 307.58 108.001 307.316 108.308 307.095H108.27C108.372 306.985 108.475 306.929 108.577 306.929C108.705 306.902 108.82 306.889 108.923 306.889C109.204 306.889 109.512 306.985 109.845 307.178C110.178 307.371 110.485 307.622 110.767 307.926C111.048 308.203 111.279 308.522 111.458 308.881C111.638 309.212 111.727 309.546 111.727 309.878ZM104.121 291.566C104.121 291.289 104.108 291 104.082 290.694C104.057 290.39 103.993 290.126 103.89 289.905C103.532 290.377 103.212 290.945 102.93 291.608C102.674 292.246 102.456 292.924 102.277 293.643C102.098 294.336 101.944 295.041 101.816 295.76C101.713 296.481 101.637 297.144 101.585 297.754C102.251 296.895 102.84 295.926 103.352 294.846C103.865 293.74 104.121 292.645 104.121 291.566ZM128.784 265.865C128.784 266.17 128.656 266.433 128.4 266.654C128.169 266.848 127.887 267.014 127.554 267.152C127.222 267.263 126.889 267.346 126.556 267.401C126.223 267.457 125.966 267.484 125.787 267.484C125.198 267.484 124.648 267.388 124.136 267.194C123.623 266.972 123.073 266.848 122.484 266.82C121.638 267.069 120.883 267.623 120.217 268.481C119.551 269.339 119.026 270.585 118.642 272.218C118.258 273.851 118.04 275.899 117.989 278.363C117.938 280.826 118.104 283.802 118.488 287.29C120.102 286.931 121.6 286.625 122.983 286.376C124.392 286.1 125.48 285.962 126.248 285.962C126.863 285.962 127.285 286.14 127.516 286.502C127.747 286.861 127.862 287.318 127.862 287.871C127.862 288.426 127.81 288.938 127.708 289.408C127.606 289.878 127.337 290.267 126.901 290.571L118.873 291.899C119.001 293.062 119.103 294.238 119.18 295.428C119.282 296.591 119.385 297.739 119.487 298.874C119.897 302.473 120.243 305.42 120.524 307.718C120.832 310.016 121.075 311.857 121.254 313.241C121.459 314.597 121.613 315.579 121.715 316.19C121.843 316.77 121.933 317.172 121.984 317.393C122.035 317.586 122.061 317.669 122.061 317.642C122.087 317.614 122.099 317.642 122.099 317.724C122.099 318.307 121.933 318.707 121.6 318.93C121.267 319.179 120.87 319.302 120.409 319.302C120.05 319.302 119.666 319.261 119.257 319.179C118.873 319.123 118.488 319.025 118.104 318.887C117.72 318.749 117.374 318.556 117.067 318.307C116.76 318.056 116.542 317.752 116.414 317.393C116.209 315.511 115.966 313.711 115.684 311.995C115.402 310.28 115.159 308.494 114.954 306.638C114.749 304.453 114.519 302.127 114.263 299.663C114.032 297.199 113.84 294.846 113.686 292.605C113.584 292.633 113.481 292.645 113.379 292.645C113.277 292.618 113.161 292.605 113.033 292.605C112.624 292.605 112.278 292.507 111.996 292.314C111.74 292.093 111.612 291.706 111.612 291.151C111.612 290.515 111.753 289.933 112.034 289.408C112.342 288.881 112.79 288.536 113.379 288.37C113.302 286.846 113.213 285.159 113.11 283.304C113.008 281.449 112.969 279.567 112.995 277.657C113.02 275.719 113.161 273.851 113.417 272.052C113.699 270.225 114.186 268.619 114.877 267.235C115.569 265.824 116.516 264.689 117.72 263.831C118.924 262.973 120.473 262.544 122.368 262.544C122.752 262.544 123.29 262.613 123.982 262.751C124.699 262.889 125.416 263.111 126.133 263.415C126.85 263.692 127.465 264.038 127.977 264.453C128.515 264.869 128.784 265.339 128.784 265.865ZM145.226 300.452C145.226 302.86 145.034 305.269 144.649 307.678C144.291 310.056 143.535 312.314 142.383 314.444C142.024 315.082 141.615 315.705 141.154 316.313C140.693 316.895 140.18 317.42 139.617 317.89C139.079 318.39 138.477 318.777 137.811 319.053C137.171 319.357 136.492 319.51 135.775 319.51C134.649 319.51 133.663 319.219 132.817 318.639C131.998 318.084 131.281 317.35 130.666 316.438C130.077 315.497 129.578 314.444 129.168 313.281C128.784 312.091 128.476 310.888 128.246 309.669C128.041 308.424 127.887 307.22 127.785 306.058C127.708 304.895 127.67 303.87 127.67 302.986C127.67 301.989 127.708 300.896 127.785 299.706C127.862 298.515 127.99 297.297 128.169 296.051C128.374 294.805 128.63 293.574 128.937 292.356C129.27 291.138 129.693 290.003 130.205 288.951C130.717 287.871 131.332 286.916 132.049 286.085C132.766 285.228 133.599 284.55 134.546 284.051V284.093C135.366 283.622 136.185 283.387 137.005 283.387C137.517 283.387 137.914 283.511 138.196 283.761C138.477 283.982 138.605 284.37 138.58 284.923C139.988 285.2 141.128 285.934 141.999 287.125C142.87 288.315 143.535 289.699 143.996 291.276C144.483 292.854 144.803 294.474 144.957 296.134C145.136 297.794 145.226 299.234 145.226 300.452ZM136.544 290.071C136.108 290.071 135.699 289.892 135.314 289.531C134.828 290.335 134.418 291.262 134.085 292.314C133.752 293.339 133.483 294.404 133.278 295.511C133.099 296.591 132.971 297.684 132.894 298.791C132.817 299.899 132.779 300.936 132.779 301.906C132.779 302.707 132.817 303.747 132.894 305.02C132.971 306.266 133.112 307.524 133.317 308.798C133.547 310.071 133.855 311.262 134.239 312.369C134.649 313.475 135.174 314.293 135.814 314.818C136.608 314.321 137.261 313.532 137.773 312.452C138.311 311.345 138.733 310.139 139.041 308.84C139.348 307.539 139.553 306.223 139.655 304.895C139.783 303.566 139.847 302.431 139.847 301.489C139.847 300.798 139.809 299.899 139.732 298.791C139.655 297.684 139.527 296.563 139.348 295.428C139.169 294.265 138.913 293.185 138.58 292.188C138.273 291.194 137.875 290.445 137.389 289.948C137.158 290.031 136.877 290.071 136.544 290.071ZM151.603 318.139C151.219 318.139 150.796 318.084 150.335 317.973C149.9 317.863 149.477 317.684 149.067 317.433C148.683 317.184 148.35 316.88 148.068 316.521C147.812 316.132 147.684 315.677 147.684 315.15C147.684 314.376 147.71 313.615 147.761 312.867C147.838 312.091 147.915 311.33 147.992 310.584V310.624L148.222 307.843C148.299 306.846 148.363 305.754 148.414 304.563C148.465 303.373 148.504 302.167 148.529 300.951C148.581 299.706 148.619 298.487 148.645 297.297C148.67 296.106 148.683 295.014 148.683 294.017C148.683 293.434 148.67 292.854 148.645 292.273C148.645 291.663 148.645 291.055 148.645 290.445C148.619 289.92 148.606 289.338 148.606 288.702C148.606 288.037 148.606 287.429 148.606 286.874C148.606 286.293 148.67 285.824 148.798 285.463C148.952 285.075 149.362 284.882 150.028 284.882C150.617 284.882 151.231 285.048 151.872 285.38C152.538 285.713 152.998 286.183 153.255 286.791H153.216C153.344 287.097 153.434 287.594 153.485 288.287C153.562 288.951 153.613 289.546 153.639 290.071C154.074 289.353 154.561 288.591 155.098 287.788C155.662 286.986 156.264 286.251 156.904 285.588C157.544 284.896 158.223 284.328 158.94 283.885C159.657 283.442 160.426 283.221 161.245 283.221C162.321 283.221 163.14 283.511 163.704 284.093C164.267 284.674 164.677 285.408 164.933 286.293C165.189 287.152 165.33 288.079 165.356 289.076C165.381 290.043 165.394 290.93 165.394 291.733V292.065C165.394 292.397 165.381 292.728 165.356 293.062C165.356 293.366 165.304 293.657 165.202 293.934C165.125 294.182 164.971 294.391 164.741 294.557C164.536 294.722 164.242 294.805 163.857 294.805C163.448 294.805 163.012 294.75 162.551 294.64C162.09 294.501 161.655 294.308 161.245 294.057C160.861 293.808 160.528 293.504 160.246 293.145C159.965 292.756 159.811 292.314 159.785 291.816C159.785 291.595 159.785 291.372 159.785 291.151C159.785 290.93 159.798 290.709 159.824 290.488C159.824 290.35 159.824 290.182 159.824 289.988C159.849 289.767 159.862 289.559 159.862 289.365C159.043 290.252 158.313 291.344 157.672 292.645C157.058 293.947 156.494 295.33 155.982 296.797C155.496 298.266 155.073 299.746 154.714 301.24C154.356 302.707 154.049 304.036 153.792 305.226V305.352C153.716 306.211 153.664 307.055 153.639 307.884C153.613 308.715 153.588 309.574 153.562 310.458C153.536 311.455 153.498 312.465 153.447 313.49C153.421 314.514 153.357 315.511 153.255 316.479C153.203 317.006 153.05 317.406 152.794 317.684C152.563 317.988 152.166 318.139 151.603 318.139ZM173.346 317.267C173.346 317.905 173.167 318.32 172.808 318.513C172.475 318.707 172.065 318.804 171.579 318.804C171.144 318.804 170.708 318.762 170.273 318.679C169.863 318.624 169.466 318.5 169.082 318.307C168.723 318.111 168.403 317.85 168.121 317.518C167.865 317.184 167.686 316.755 167.584 316.23C167.225 314.57 167.02 312.95 166.969 311.372C166.918 309.767 166.892 308.12 166.892 306.432V301.323C166.892 299 166.982 296.591 167.161 294.1C167.34 291.58 167.533 289.159 167.737 286.833C167.737 286.75 167.75 286.653 167.776 286.542C167.801 286.432 167.814 286.349 167.814 286.293C167.84 285.989 167.878 285.658 167.929 285.297C167.981 284.937 168.057 284.619 168.16 284.342C168.288 284.037 168.454 283.788 168.659 283.595C168.89 283.401 169.184 283.304 169.543 283.304C169.953 283.304 170.337 283.401 170.695 283.595C171.079 283.761 171.412 283.996 171.694 284.3C171.976 284.577 172.193 284.923 172.347 285.338C172.526 285.753 172.616 286.183 172.616 286.625C172.616 287.18 172.591 287.76 172.539 288.37C172.514 288.951 172.475 289.518 172.424 290.071C172.373 290.46 172.334 290.749 172.309 290.945C172.309 291.138 172.296 291.455 172.27 291.899C172.578 291.317 172.923 290.736 173.308 290.154C173.717 289.546 174.166 289.021 174.652 288.577C175.139 288.107 175.664 287.733 176.227 287.456C176.816 287.152 177.444 286.999 178.11 286.999C178.775 286.999 179.326 287.125 179.761 287.373C180.197 287.594 180.543 287.913 180.799 288.328C181.055 288.715 181.234 289.187 181.337 289.739C181.439 290.294 181.49 290.875 181.49 291.483C181.49 291.872 181.477 292.246 181.452 292.605C181.452 292.964 181.439 293.324 181.413 293.685C181.388 294.044 181.362 294.404 181.337 294.763C181.337 295.097 181.337 295.456 181.337 295.843C181.337 296.563 181.349 297.254 181.375 297.92C181.426 298.555 181.477 299.234 181.529 299.954C181.785 299.04 182.092 298.003 182.451 296.84C182.835 295.677 183.27 294.486 183.757 293.268C184.269 292.05 184.82 290.86 185.409 289.699C186.023 288.509 186.676 287.456 187.368 286.542C188.085 285.63 188.853 284.896 189.673 284.342C190.492 283.761 191.35 283.47 192.247 283.47C193.655 283.47 194.641 283.913 195.205 284.799C195.794 285.685 196.088 286.818 196.088 288.202C196.088 288.591 196.075 289.006 196.05 289.448C196.024 289.865 195.986 290.267 195.935 290.654C195.807 292.148 195.704 293.685 195.627 295.262C195.576 296.84 195.55 298.377 195.55 299.871V300.66C195.55 302.597 195.627 304.425 195.781 306.141C195.935 307.856 196.242 309.669 196.703 311.581L197.01 312.701C197.113 313.088 197.228 313.517 197.356 313.987C197.509 314.459 197.638 314.916 197.74 315.358C197.842 315.801 197.932 316.217 198.009 316.604C198.086 316.991 198.124 317.295 198.124 317.518C198.124 318.099 197.932 318.485 197.548 318.679C197.164 318.875 196.767 318.97 196.357 318.97C196.101 318.97 195.807 318.957 195.474 318.93C195.141 318.93 194.808 318.887 194.475 318.804C194.167 318.749 193.86 318.651 193.553 318.513C193.271 318.375 193.041 318.196 192.861 317.973V318.016C192.631 317.767 192.464 317.461 192.362 317.102C192.259 316.742 192.183 316.383 192.131 316.022L192.055 315.65C191.696 314.155 191.389 312.812 191.133 311.621C190.902 310.431 190.71 309.24 190.556 308.05C190.403 306.861 190.287 305.628 190.211 304.355C190.159 303.081 190.134 301.615 190.134 299.954C190.134 298.543 190.185 297.103 190.287 295.637C190.415 294.168 190.544 292.728 190.672 291.317C190.672 291.179 190.672 291.028 190.672 290.86C190.697 290.666 190.723 290.5 190.748 290.362C189.775 291.995 188.917 293.796 188.174 295.76C187.457 297.699 186.804 299.691 186.215 301.74C185.652 303.787 185.152 305.849 184.717 307.926C184.307 309.973 183.936 311.925 183.603 313.781C183.603 313.809 183.654 313.974 183.757 314.278C183.885 314.555 184 314.889 184.102 315.275C184.23 315.635 184.346 315.994 184.448 316.355C184.551 316.687 184.602 316.908 184.602 317.019C184.602 317.656 184.41 318.043 184.026 318.181C183.642 318.32 183.244 318.39 182.835 318.39C182.527 318.39 182.194 318.375 181.836 318.347C181.477 318.32 181.119 318.252 180.76 318.139C180.427 318.028 180.107 317.877 179.8 317.684C179.518 317.518 179.288 317.267 179.108 316.936C178.955 316.659 178.775 316.009 178.571 314.984C178.366 313.932 178.148 312.714 177.917 311.33C177.687 309.918 177.469 308.411 177.264 306.804C177.06 305.199 176.868 303.677 176.688 302.237C176.509 300.798 176.368 299.538 176.266 298.46C176.163 297.38 176.112 296.646 176.112 296.259V295.637C175.292 297.546 174.614 299.595 174.076 301.78C173.538 303.968 173.128 306.113 172.847 308.218L172.693 308.964C172.642 309.185 172.603 309.406 172.578 309.629C172.552 309.823 172.539 310.016 172.539 310.209C172.539 310.513 172.565 310.888 172.616 311.33C172.693 311.774 172.783 312.259 172.885 312.784C173.013 313.505 173.116 314.251 173.192 315.027C173.295 315.773 173.346 316.521 173.346 317.267ZM227.051 320.299C227.051 321.434 227.013 322.625 226.936 323.87C226.859 325.116 226.731 326.362 226.552 327.608C226.373 328.881 226.129 330.127 225.822 331.343C225.515 332.561 225.13 333.696 224.669 334.748C223.901 336.298 222.928 337.654 221.75 338.817C220.597 340.008 219.33 341.005 217.947 341.806C216.564 342.61 215.091 343.218 213.529 343.635C211.967 344.049 210.392 344.257 208.804 344.257C208.573 344.257 208.304 344.243 207.997 344.215C207.664 344.187 207.344 344.119 207.037 344.007C206.729 343.924 206.473 343.773 206.268 343.552C206.063 343.328 205.961 343.024 205.961 342.638C205.961 342.472 206 342.306 206.076 342.14C206.076 342.085 206.089 342.027 206.115 341.972C206.115 341.945 206.115 341.917 206.115 341.889C206.294 341.337 206.499 340.894 206.729 340.561C206.96 340.229 207.229 339.965 207.536 339.772C207.818 339.606 208.163 339.483 208.573 339.398C208.958 339.342 209.406 339.287 209.918 339.232C211.557 339.149 213.106 338.734 214.566 337.986V338.029C216.231 337.142 217.537 336.035 218.485 334.706C219.458 333.405 220.188 331.953 220.674 330.348C221.186 328.768 221.507 327.095 221.635 325.322C221.763 323.551 221.827 321.766 221.827 319.967C221.827 319.553 221.827 319.247 221.827 319.053C221.827 318.86 221.827 318.679 221.827 318.513C221.827 318.375 221.827 318.209 221.827 318.016C221.827 317.822 221.814 317.518 221.788 317.102C220.892 317.85 219.957 318.224 218.984 318.224C217.857 318.224 216.897 317.89 216.103 317.227C215.334 316.534 214.681 315.65 214.144 314.57C213.631 313.462 213.222 312.216 212.914 310.832C212.632 309.421 212.415 307.994 212.261 306.555C212.133 305.088 212.044 303.664 211.992 302.28C211.967 300.896 211.954 299.663 211.954 298.583V296.84C211.954 295.373 211.954 293.934 211.954 292.522C211.979 291.111 212.031 289.699 212.108 288.287V287.665C212.108 287.331 212.108 286.999 212.108 286.668C212.108 286.336 212.133 286.017 212.184 285.713C212.287 285.269 212.428 284.951 212.607 284.757C212.812 284.563 213.132 284.467 213.567 284.467C213.772 284.467 213.964 284.48 214.144 284.508C214.348 284.536 214.553 284.577 214.758 284.633C215.245 284.854 215.629 285.089 215.911 285.338C216.192 285.56 216.397 285.836 216.525 286.168C216.679 286.474 216.769 286.833 216.794 287.248C216.846 287.665 216.871 288.147 216.871 288.702V294.265C216.871 294.931 216.871 295.76 216.871 296.757C216.897 297.726 216.935 298.791 216.986 299.954C217.038 301.117 217.102 302.32 217.178 303.566C217.255 304.812 217.371 306.015 217.524 307.178C217.678 308.341 217.857 309.406 218.062 310.375C218.267 311.345 218.523 312.146 218.83 312.784C219.291 311.704 219.688 310.445 220.021 309.006C220.354 307.539 220.623 305.975 220.828 304.314C221.058 302.624 221.225 300.896 221.327 299.123C221.455 297.352 221.545 295.622 221.596 293.934C221.673 292.246 221.711 290.654 221.711 289.159C221.737 287.637 221.75 286.308 221.75 285.172C221.75 284.896 221.75 284.605 221.75 284.3C221.776 283.968 221.839 283.678 221.942 283.429C222.044 283.152 222.185 282.93 222.365 282.764C222.569 282.598 222.864 282.515 223.248 282.515C223.427 282.515 223.619 282.543 223.824 282.598C224.055 282.653 224.247 282.709 224.401 282.764C224.452 282.764 224.503 282.778 224.554 282.806C224.631 282.806 224.695 282.806 224.746 282.806C225.105 282.944 225.451 283.082 225.783 283.221C226.116 283.359 226.398 283.539 226.629 283.761C226.885 283.954 227.077 284.217 227.205 284.55C227.359 284.882 227.435 285.311 227.435 285.836C227.435 286.474 227.423 287.208 227.397 288.037C227.397 288.84 227.371 289.684 227.32 290.571C227.295 291.455 227.256 292.329 227.205 293.185C227.154 294.017 227.102 294.763 227.051 295.428L226.898 296.88C226.846 297.269 226.808 297.656 226.782 298.043C226.757 298.432 226.744 298.791 226.744 299.123C226.744 300.896 226.757 302.667 226.782 304.438C226.808 306.183 226.846 307.939 226.898 309.712C226.949 311.483 226.987 313.254 227.013 315.027C227.039 316.77 227.051 318.528 227.051 320.299ZM247.796 300.452C247.796 302.86 247.604 305.269 247.22 307.678C246.861 310.056 246.106 312.314 244.953 314.444C244.594 315.082 244.185 315.705 243.724 316.313C243.263 316.895 242.75 317.42 242.187 317.89C241.649 318.39 241.048 318.777 240.382 319.053C239.741 319.357 239.063 319.51 238.346 319.51C237.219 319.51 236.233 319.219 235.388 318.639C234.568 318.084 233.851 317.35 233.236 316.438C232.647 315.497 232.148 314.444 231.738 313.281C231.354 312.091 231.046 310.888 230.816 309.669C230.611 308.424 230.457 307.22 230.355 306.058C230.278 304.895 230.24 303.87 230.24 302.986C230.24 301.989 230.278 300.896 230.355 299.706C230.432 298.515 230.56 297.297 230.739 296.051C230.944 294.805 231.2 293.574 231.508 292.356C231.84 291.138 232.263 290.003 232.775 288.951C233.287 287.871 233.902 286.916 234.619 286.085C235.336 285.228 236.169 284.55 237.116 284.051V284.093C237.936 283.622 238.755 283.387 239.575 283.387C240.087 283.387 240.484 283.511 240.766 283.761C241.048 283.982 241.176 284.37 241.15 284.923C242.558 285.2 243.698 285.934 244.569 287.125C245.44 288.315 246.106 289.699 246.567 291.276C247.053 292.854 247.373 294.474 247.527 296.134C247.706 297.794 247.796 299.234 247.796 300.452ZM239.114 290.071C238.678 290.071 238.269 289.892 237.885 289.531C237.398 290.335 236.988 291.262 236.655 292.314C236.322 293.339 236.053 294.404 235.848 295.511C235.669 296.591 235.541 297.684 235.464 298.791C235.388 299.899 235.349 300.936 235.349 301.906C235.349 302.707 235.388 303.747 235.464 305.02C235.541 306.266 235.682 307.524 235.887 308.798C236.117 310.071 236.425 311.262 236.809 312.369C237.219 313.475 237.744 314.293 238.384 314.818C239.178 314.321 239.831 313.532 240.343 312.452C240.881 311.345 241.304 310.139 241.611 308.84C241.918 307.539 242.123 306.223 242.225 304.895C242.354 303.566 242.418 302.431 242.418 301.489C242.418 300.798 242.379 299.899 242.302 298.791C242.225 297.684 242.097 296.563 241.918 295.428C241.739 294.265 241.483 293.185 241.15 292.188C240.843 291.194 240.446 290.445 239.959 289.948C239.729 290.031 239.447 290.071 239.114 290.071ZM266.773 290.071C266.773 290.35 266.748 290.639 266.696 290.945C266.645 291.249 266.594 291.525 266.543 291.774C266.492 292.078 266.44 292.369 266.389 292.645C266.338 292.896 266.312 293.145 266.312 293.394C266.312 295.968 266.351 298.555 266.427 301.157C266.53 303.732 266.786 306.321 267.196 308.923C267.324 309.918 267.478 310.888 267.657 311.829C267.836 312.769 268.041 313.726 268.271 314.693L268.348 314.944V314.861C268.425 315.054 268.489 315.261 268.54 315.482C268.617 315.677 268.656 315.883 268.656 316.105C268.656 316.411 268.579 316.659 268.425 316.853C268.297 317.046 268.131 317.199 267.926 317.31C267.721 317.42 267.49 317.491 267.234 317.518C267.004 317.546 266.786 317.559 266.581 317.559C265.736 317.559 265.057 317.461 264.545 317.267C264.059 317.046 263.662 316.755 263.354 316.396C263.047 316.009 262.816 315.552 262.663 315.027C262.535 314.499 262.419 313.919 262.317 313.281L262.202 312.535C262.099 312.146 262.035 311.732 262.01 311.289C261.984 311.068 261.958 310.971 261.933 310.998C261.933 310.998 261.92 310.888 261.894 310.667C261.536 311.357 261.113 312.106 260.627 312.909C260.166 313.683 259.628 314.417 259.013 315.11C258.424 315.773 257.784 316.34 257.092 316.812C256.401 317.255 255.658 317.476 254.864 317.476C253.763 317.476 252.905 317.116 252.29 316.396C251.701 315.677 251.266 314.803 250.984 313.781C250.703 312.729 250.536 311.649 250.485 310.541C250.434 309.406 250.408 308.424 250.408 307.595C250.408 304.438 250.498 301.311 250.677 298.211C250.882 295.109 251.099 291.995 251.33 288.868C251.33 288.785 251.33 288.674 251.33 288.536C251.356 288.398 251.369 288.287 251.369 288.202C251.394 287.816 251.42 287.456 251.445 287.125C251.471 286.791 251.535 286.474 251.637 286.168V286.21C251.74 285.768 251.881 285.449 252.06 285.256C252.265 285.062 252.572 284.965 252.982 284.965C253.366 284.965 253.75 285.048 254.134 285.214C254.519 285.352 254.864 285.56 255.172 285.836C255.479 286.085 255.722 286.391 255.901 286.75C256.106 287.11 256.209 287.511 256.209 287.954C256.209 288.175 256.209 288.438 256.209 288.742C256.209 289.049 256.196 289.31 256.171 289.531C256.171 289.727 256.158 289.975 256.132 290.279C256.132 290.556 256.132 290.792 256.132 290.985C255.927 293.643 255.773 296.287 255.671 298.917C255.569 301.517 255.517 304.161 255.517 306.846C255.517 307.595 255.517 308.341 255.517 309.089C255.543 309.835 255.62 310.584 255.748 311.33C256.593 310.167 257.323 308.687 257.938 306.889C258.552 305.061 259.064 303.137 259.474 301.117C259.91 299.068 260.255 297.048 260.511 295.054C260.793 293.035 260.998 291.249 261.126 289.699C261.126 289.616 261.126 289.518 261.126 289.408C261.152 289.297 261.164 289.199 261.164 289.117C261.19 288.813 261.216 288.521 261.241 288.245C261.267 287.969 261.357 287.705 261.51 287.456C261.51 287.207 261.523 286.944 261.549 286.668C261.574 286.391 261.638 286.14 261.741 285.919C261.843 285.67 261.984 285.477 262.163 285.338C262.368 285.2 262.65 285.131 263.008 285.131C264.033 285.131 264.84 285.477 265.429 286.168C266.018 286.833 266.338 287.692 266.389 288.742C266.517 288.966 266.607 289.187 266.658 289.408C266.735 289.601 266.773 289.822 266.773 290.071ZM274.764 318.139C274.379 318.139 273.958 318.084 273.496 317.973C273.061 317.863 272.638 317.684 272.228 317.433C271.844 317.184 271.511 316.88 271.229 316.521C270.973 316.132 270.845 315.677 270.845 315.15C270.845 314.376 270.871 313.615 270.922 312.867C270.999 312.091 271.076 311.33 271.153 310.584V310.624L271.383 307.843C271.46 306.846 271.524 305.754 271.575 304.563C271.626 303.373 271.665 302.167 271.69 300.951C271.742 299.706 271.78 298.487 271.806 297.297C271.831 296.106 271.844 295.014 271.844 294.017C271.844 293.434 271.831 292.854 271.806 292.273C271.806 291.663 271.806 291.055 271.806 290.445C271.78 289.92 271.767 289.338 271.767 288.702C271.767 288.037 271.767 287.429 271.767 286.874C271.767 286.293 271.831 285.824 271.959 285.463C272.113 285.075 272.523 284.882 273.189 284.882C273.777 284.882 274.393 285.048 275.032 285.38C275.699 285.713 276.159 286.183 276.416 286.791H276.377C276.505 287.097 276.595 287.594 276.647 288.287C276.723 288.951 276.774 289.546 276.8 290.071C277.235 289.353 277.722 288.591 278.259 287.788C278.822 286.986 279.424 286.251 280.065 285.588C280.706 284.896 281.385 284.328 282.101 283.885C282.819 283.442 283.586 283.221 284.406 283.221C285.482 283.221 286.302 283.511 286.865 284.093C287.427 284.674 287.838 285.408 288.094 286.293C288.35 287.152 288.491 288.079 288.517 289.076C288.542 290.043 288.554 290.93 288.554 291.733V292.065C288.554 292.397 288.542 292.728 288.517 293.062C288.517 293.366 288.466 293.657 288.363 293.934C288.287 294.182 288.133 294.391 287.901 294.557C287.697 294.722 287.402 294.805 287.018 294.805C286.609 294.805 286.172 294.75 285.712 294.64C285.252 294.501 284.815 294.308 284.406 294.057C284.022 293.808 283.688 293.504 283.407 293.145C283.126 292.756 282.972 292.314 282.947 291.816C282.947 291.595 282.947 291.372 282.947 291.151C282.947 290.93 282.958 290.709 282.984 290.488C282.984 290.35 282.984 290.182 282.984 289.988C283.009 289.767 283.023 289.559 283.023 289.365C282.203 290.252 281.473 291.344 280.834 292.645C280.218 293.947 279.656 295.33 279.143 296.797C278.657 298.266 278.234 299.746 277.876 301.24C277.516 302.707 277.209 304.036 276.953 305.226V305.352C276.877 306.211 276.826 307.055 276.8 307.884C276.774 308.715 276.749 309.574 276.723 310.458C276.698 311.455 276.658 312.465 276.607 313.49C276.582 314.514 276.519 315.511 276.416 316.479C276.363 317.006 276.21 317.406 275.954 317.684C275.724 317.988 275.327 318.139 274.764 318.139ZM303.152 287.042C303.152 287.373 303.038 287.65 302.806 287.871C302.602 288.092 302.346 288.287 302.039 288.453C301.732 288.591 301.412 288.687 301.079 288.742C300.77 288.798 300.515 288.825 300.31 288.825C300.003 288.825 299.708 288.798 299.427 288.742C299.146 288.659 298.863 288.577 298.581 288.494C298.3 288.411 298.031 288.343 297.775 288.287C297.519 288.202 297.25 288.162 296.968 288.162C296.583 288.162 296.199 288.23 295.816 288.37C295.43 288.509 295.086 288.702 294.777 288.951C294.471 289.199 294.215 289.503 294.01 289.865C293.831 290.224 293.741 290.626 293.741 291.068C293.741 291.733 293.869 292.397 294.124 293.062C294.382 293.698 294.714 294.348 295.124 295.014C295.56 295.677 296.046 296.355 296.583 297.048C297.147 297.711 297.736 298.39 298.351 299.083C299.093 299.967 299.836 300.868 300.58 301.78C301.347 302.694 302.025 303.649 302.615 304.646C303.229 305.643 303.729 306.693 304.114 307.801C304.498 308.908 304.69 310.071 304.69 311.289C304.69 312.342 304.523 313.281 304.191 314.113C303.882 314.944 303.436 315.65 302.846 316.23C302.283 316.812 301.591 317.255 300.77 317.559C299.978 317.89 299.106 318.056 298.158 318.056C297.903 318.056 297.505 318.001 296.968 317.89C296.455 317.78 295.867 317.629 295.2 317.433C294.535 317.212 293.843 316.978 293.127 316.727C292.435 316.479 291.796 316.217 291.205 315.939C290.643 315.635 290.169 315.343 289.783 315.067C289.425 314.763 289.246 314.487 289.246 314.238C289.246 313.904 289.388 313.573 289.669 313.241C289.951 312.882 290.283 312.563 290.669 312.286C291.052 311.98 291.449 311.732 291.859 311.538C292.293 311.345 292.653 311.247 292.934 311.247C293.318 311.247 293.715 311.345 294.124 311.538C294.561 311.732 294.996 311.953 295.43 312.204C295.918 312.48 296.404 312.729 296.892 312.95C297.403 313.171 297.928 313.281 298.465 313.281C298.876 313.281 299.106 313.13 299.158 312.824C299.234 312.52 299.274 312.176 299.274 311.787C299.274 310.817 299.12 309.905 298.811 309.047C298.505 308.16 298.107 307.303 297.621 306.472C297.134 305.643 296.571 304.84 295.93 304.064C295.291 303.262 294.65 302.473 294.01 301.697C293.343 300.924 292.69 300.148 292.051 299.372C291.436 298.598 290.885 297.809 290.399 297.006C289.913 296.174 289.516 295.33 289.207 294.474C288.926 293.615 288.786 292.701 288.786 291.733C288.786 290.543 289.028 289.476 289.516 288.536C290.002 287.567 290.629 286.736 291.398 286.045C292.191 285.352 293.076 284.826 294.048 284.467C295.047 284.079 296.046 283.885 297.045 283.885C297.378 283.885 297.889 283.968 298.581 284.134C299.274 284.273 299.952 284.48 300.617 284.757C301.284 285.034 301.872 285.366 302.385 285.753C302.897 286.14 303.152 286.57 303.152 287.042ZM321.478 309.878C321.478 310.707 321.26 311.566 320.825 312.452C320.414 313.337 319.877 314.155 319.21 314.901C318.545 315.622 317.776 316.217 316.905 316.687C316.061 317.157 315.215 317.393 314.37 317.393C313.166 317.393 312.129 317.144 311.258 316.644C310.389 316.119 309.633 315.426 308.992 314.57C308.353 313.683 307.828 312.686 307.417 311.581C307.033 310.473 306.726 309.338 306.496 308.175C306.264 306.985 306.099 305.809 305.996 304.646C305.92 303.456 305.88 302.376 305.88 301.406C305.88 300.577 305.92 299.595 305.996 298.46C306.099 297.325 306.252 296.147 306.457 294.931C306.687 293.713 306.994 292.507 307.379 291.317C307.763 290.126 308.237 289.061 308.799 288.12C309.389 287.18 310.08 286.419 310.874 285.836C311.695 285.256 312.629 284.965 313.679 284.965C314.499 284.965 315.229 285.145 315.868 285.504C316.535 285.864 317.086 286.349 317.52 286.959C317.981 287.539 318.327 288.217 318.557 288.993C318.815 289.767 318.943 290.571 318.943 291.4C318.943 292.48 318.71 293.657 318.25 294.931C317.79 296.202 317.188 297.435 316.445 298.626C315.729 299.816 314.908 300.896 313.986 301.863C313.089 302.805 312.194 303.526 311.297 304.023C311.348 304.521 311.451 305.254 311.604 306.223C311.758 307.165 311.962 308.105 312.22 309.047C312.501 309.988 312.822 310.805 313.18 311.498C313.563 312.189 314.012 312.535 314.525 312.535C314.781 312.535 314.997 312.452 315.178 312.286C315.382 312.118 315.561 311.897 315.715 311.621C315.868 311.345 315.996 311.041 316.098 310.707C316.226 310.375 316.342 310.056 316.445 309.752L316.675 309.172C316.726 309.089 316.751 309.034 316.751 309.006C316.777 308.979 316.803 308.936 316.828 308.881C317.009 308.522 317.174 308.19 317.328 307.884C317.507 307.58 317.751 307.316 318.057 307.095H318.02C318.122 306.985 318.225 306.929 318.327 306.929C318.455 306.902 318.571 306.889 318.673 306.889C318.954 306.889 319.261 306.985 319.596 307.178C319.928 307.371 320.235 307.622 320.516 307.926C320.799 308.203 321.029 308.522 321.208 308.881C321.387 309.212 321.478 309.546 321.478 309.878ZM313.872 291.566C313.872 291.289 313.858 291 313.833 290.694C313.807 290.39 313.742 290.126 313.64 289.905C313.282 290.377 312.961 290.945 312.68 291.608C312.424 292.246 312.206 292.924 312.027 293.643C311.848 294.336 311.695 295.041 311.567 295.76C311.464 296.481 311.386 297.144 311.335 297.754C312.001 296.895 312.589 295.926 313.103 294.846C313.614 293.74 313.872 292.645 313.872 291.566ZM333.041 318.679C333.041 319.068 332.951 319.385 332.772 319.636C332.593 319.884 332.363 320.078 332.079 320.216C331.824 320.382 331.529 320.492 331.196 320.548C330.889 320.63 330.608 320.673 330.35 320.673C329.456 320.673 328.675 320.397 328.008 319.842C327.341 319.289 326.765 318.568 326.279 317.684C325.793 316.825 325.396 315.843 325.089 314.735C324.78 313.6 324.525 312.48 324.32 311.372C324.115 310.237 323.962 309.157 323.86 308.132C323.757 307.082 323.679 306.183 323.628 305.435C323.398 302.86 323.232 300.245 323.13 297.588C323.051 294.931 323.014 292.301 323.014 289.699C323.014 282.584 323.244 275.539 323.706 268.564C323.706 268.453 323.706 268.329 323.706 268.19C323.732 268.052 323.744 267.913 323.744 267.775C323.769 267.194 323.795 266.53 323.82 265.782C323.846 265.007 323.885 264.246 323.936 263.498C323.988 262.751 324.039 262.073 324.09 261.464C324.167 260.827 324.255 260.384 324.359 260.135V260.177C324.462 259.789 324.601 259.499 324.78 259.305C324.961 259.111 325.268 259.014 325.703 259.014C326.625 259.014 327.406 259.346 328.047 260.011C328.687 260.675 329.007 261.505 329.007 262.502C329.007 262.723 328.993 262.945 328.968 263.166C328.968 263.36 328.956 263.554 328.93 263.748C328.905 263.941 328.879 264.135 328.854 264.329C328.854 264.495 328.854 264.647 328.854 264.785C328.777 265.865 328.712 266.945 328.661 268.024C328.635 269.076 328.596 270.142 328.545 271.221C328.417 273.602 328.315 275.982 328.238 278.363C328.187 280.716 328.161 283.096 328.161 285.504C328.161 286.529 328.175 287.871 328.201 289.531C328.226 291.194 328.277 293.007 328.354 294.971C328.431 296.91 328.533 298.917 328.661 300.992C328.814 303.069 329.007 305.048 329.237 306.929C329.467 308.811 329.737 310.513 330.044 312.036C330.376 313.56 330.762 314.735 331.196 315.567C331.426 315.677 331.645 315.856 331.849 316.105C332.079 316.328 332.272 316.589 332.426 316.895C332.605 317.172 332.746 317.461 332.848 317.767C332.976 318.099 333.041 318.403 333.041 318.679ZM348.983 265.865C348.983 266.17 348.855 266.433 348.599 266.654C348.369 266.848 348.086 267.014 347.754 267.152C347.421 267.263 347.089 267.346 346.754 267.401C346.422 267.457 346.166 267.484 345.987 267.484C345.397 267.484 344.846 267.388 344.335 267.194C343.822 266.972 343.271 266.848 342.683 266.82C341.837 267.069 341.082 267.623 340.417 268.481C339.75 269.339 339.225 270.585 338.842 272.218C338.458 273.851 338.24 275.899 338.189 278.363C338.137 280.826 338.303 283.802 338.688 287.29C340.301 286.931 341.8 286.625 343.182 286.376C344.591 286.1 345.678 285.962 346.447 285.962C347.061 285.962 347.484 286.14 347.716 286.502C347.946 286.861 348.06 287.318 348.06 287.871C348.06 288.426 348.009 288.938 347.907 289.408C347.805 289.878 347.535 290.267 347.1 290.571L339.072 291.899C339.2 293.062 339.302 294.238 339.379 295.428C339.481 296.591 339.583 297.739 339.685 298.874C340.096 302.473 340.443 305.42 340.724 307.718C341.031 310.016 341.275 311.857 341.454 313.241C341.658 314.597 341.812 315.579 341.914 316.19C342.042 316.77 342.132 317.172 342.183 317.393C342.234 317.586 342.26 317.669 342.26 317.642C342.286 317.614 342.299 317.642 342.299 317.724C342.299 318.307 342.132 318.707 341.8 318.93C341.465 319.179 341.07 319.302 340.608 319.302C340.25 319.302 339.866 319.261 339.455 319.179C339.072 319.123 338.688 319.025 338.303 318.887C337.919 318.749 337.573 318.556 337.266 318.307C336.959 318.056 336.741 317.752 336.613 317.393C336.409 315.511 336.165 313.711 335.883 311.995C335.602 310.28 335.358 308.494 335.154 306.638C334.949 304.453 334.717 302.127 334.461 299.663C334.231 297.199 334.038 294.846 333.885 292.605C333.783 292.633 333.68 292.645 333.578 292.645C333.476 292.618 333.36 292.605 333.232 292.605C332.823 292.605 332.477 292.507 332.195 292.314C331.94 292.093 331.812 291.706 331.812 291.151C331.812 290.515 331.952 289.933 332.233 289.408C332.542 288.881 332.99 288.536 333.578 288.37C333.501 286.846 333.411 285.159 333.309 283.304C333.206 281.449 333.169 279.567 333.195 277.657C333.22 275.719 333.36 273.851 333.617 272.052C333.899 270.225 334.385 268.619 335.077 267.235C335.767 265.824 336.715 264.689 337.919 263.831C339.123 262.973 340.673 262.544 342.567 262.544C342.952 262.544 343.489 262.613 344.182 262.751C344.898 262.889 345.615 263.111 346.331 263.415C347.049 263.692 347.663 264.038 348.176 264.453C348.713 264.869 348.983 265.339 348.983 265.865Z" fill="white"/>
</svg>
