<svg width="649" height="622" viewBox="0 0 649 622" fill="none" xmlns="http://www.w3.org/2000/svg">
<path d="M411.4 0C395.841 38.3781 411.4 104.187 495.098 84.5576C489.889 94.3863 482.581 100.596 474.173 103.877C473.279 104.227 472.372 104.543 471.453 104.826C395.431 130.385 368.818 58.3698 386.592 26.8017C390.339 17.2084 398.205 7.99557 411.4 0Z" fill="#FFEBA3"/>
<path d="M6.35452 512.54C-3.30323 506.123 1.04878 479.135 6.35453 463.467L177.774 554.064C206.233 569.838 223.268 567.74 254.632 554.064L644.953 344.935C648.172 360.035 655.818 397.029 634.893 407.976L254.632 611.065C223.584 625.796 206.887 623.918 177.774 611.065L6.35452 512.54Z" fill="url(#paint0_linear_217_1030)"/>
<path d="M25.6698 442.328C7.56199 452.52 -4.10736 475.546 12.7932 486.872L180.994 581.621C215.916 596.597 234.734 596.791 266.301 575.582L636.101 374.002C653.312 363.9 649.38 341.161 631.272 331.723L463.474 239.239C437.226 225.739 416.928 233.142 388.226 245.278L25.6698 442.328Z" fill="url(#paint1_linear_217_1030)"/>
<path d="M397.389 253.673L78.6934 429.205L281.5 544.717L609.45 368.052L397.389 253.673Z" fill="url(#paint2_linear_217_1030)"/>
<g filter="url(#filter0_di_217_1030)">
<ellipse cx="136.236" cy="508.478" rx="24.546" ry="21.5169" fill="url(#paint3_linear_217_1030)"/>
</g>
<path d="M475.051 268.772L555.127 312.939" stroke="#ECBBD8" stroke-width="9" stroke-linecap="round"/>
<path d="M177.135 458.886C171.502 466.058 175.134 475.51 176.073 484.696L189.352 492.246C185.417 477.217 185.327 471.458 189.609 458.886C194.036 423.781 172.282 410.878 175.123 418.495C177.94 426.045 186.432 447.05 177.135 458.886Z" fill="#426A76"/>
<path d="M272.1 506.828C261.155 516.795 261.102 529.1 262.443 534.007L281.097 545.094L290.755 539.809C277.556 531.958 278.807 514.252 281.758 506.828C284.977 489.841 276.929 482.669 268.076 476.252C259.224 469.834 266.022 467.056 268.076 461.152C272.1 449.589 250.113 470.729 257.759 476.252C260.932 478.544 285.782 494.37 272.1 506.828Z" fill="#426A76"/>
<path d="M501.465 398.866C515.951 403.094 512.742 416.748 509.255 422.033L521.326 415.615C521.729 410.96 519.814 397.507 511.122 392.072C500.257 385.277 509.11 381.502 511.122 370.555C513.134 359.607 502.269 358.097 505.086 362.25C507.339 365.572 505.488 370.68 504.281 372.82C497.306 379.74 486.978 394.638 501.465 398.866Z" fill="#426A76"/>
<path d="M258.161 427.413C239.812 426.809 234.956 440.751 234.822 447.797C253.815 449.307 260.71 437.101 261.783 430.81C267.1 432.191 269.281 432.616 268.221 431.188L262.587 421.373C261.353 420.808 260.276 422.769 258.161 427.413Z" fill="#426A76"/>
<path d="M107.374 562.107L88.7949 550.685C87.5673 549.931 86.8193 548.593 86.8193 547.152C86.8193 543.946 90.301 541.952 93.0662 543.574L111.877 554.61C113.215 555.395 114.037 556.83 114.037 558.382C114.037 561.802 110.288 563.898 107.374 562.107Z" fill="#302F2F"/>
<path d="M420.372 467.85L434.053 440.671L422.901 440.31C422.706 441.865 422.519 443.359 422.34 444.785C421.174 454.083 420.371 460.488 420.372 462.188C419.213 464.574 418.665 465.421 417.713 466.81L420.372 467.85Z" fill="#4A465F"/>
<path d="M387.376 439.16C376.127 440.471 380.534 453.742 380.535 478.279L401.057 472.994V460.299L408.558 463.231L409.105 462.188L409.89 439.888L387.376 439.16Z" fill="#715796"/>
<path d="M434.053 440.671L420.372 467.85C437.273 455.187 462.704 423.115 429.225 396.126L434.053 440.671Z" fill="#625C84"/>
<path fill-rule="evenodd" clip-rule="evenodd" d="M420.372 462.188C419.213 464.574 418.665 465.421 417.713 466.81L410.898 464.146C413.6 456.719 415.245 448.499 416.116 440.09L422.901 440.31C422.706 441.865 422.519 443.359 422.34 444.785C421.174 454.083 420.371 460.488 420.372 462.188Z" fill="#393839"/>
<path fill-rule="evenodd" clip-rule="evenodd" d="M406.691 485.969H396.631C403.136 480.424 407.74 472.827 410.898 464.146L417.713 466.81L406.691 485.969Z" fill="#393839"/>
<path d="M412.324 381.642C411.979 382.774 409.89 439.888 409.89 439.888L416.116 440.09C418.365 418.389 415.466 395.436 412.324 381.642Z" fill="#675881"/>
<path d="M409.89 439.888L409.105 462.188L408.558 463.231L410.898 464.146C413.6 456.719 415.245 448.499 416.116 440.09L409.89 439.888Z" fill="#675881"/>
<path d="M408.558 463.231L396.631 485.969C403.136 480.424 407.74 472.827 410.898 464.146L408.558 463.231Z" fill="#675881"/>
<path fill-rule="evenodd" clip-rule="evenodd" d="M409.105 328.556C409.91 308.926 448.942 302.886 443.308 351.96L445.32 358.378C446.619 358.301 447.868 358.222 449.054 358.146C455.827 357.716 462.614 357.413 463.428 358.378C466.647 360.125 494.815 440.671 494.815 440.671L487.169 445.577L466.245 390.087L470.269 444.823C472.817 455.896 466.406 476.004 420.372 467.85C437.273 455.187 462.704 423.115 429.225 396.126C426.887 401.467 424.698 418.509 423.994 430.856L422.901 440.31L416.116 440.09C418.365 418.389 415.466 395.436 412.324 381.642C412.999 379.426 415.243 377.673 427.688 367.952C430.083 366.082 432.855 363.917 436.065 361.397L434.053 356.113C434.053 318.778 417.421 322.186 409.105 328.556Z" fill="#393839"/>
<path d="M434.053 356.113C425.737 357.12 409.105 353.018 409.105 328.556C417.421 322.186 434.053 318.778 434.053 356.113Z" fill="#765894"/>
<path d="M401.057 472.994L380.535 478.279L380.891 491.114L398.596 481.677L401.057 472.994Z" fill="#426A76"/>
<path d="M242.468 248.943C242.834 246.03 247.807 241.807 254.507 236.117C256.047 234.808 257.68 233.422 259.368 231.956V221.764C256.686 219.373 251.884 213.384 254.137 208.552C256.39 203.72 265.806 196.975 270.233 194.207C276.181 196.206 283.915 201.148 282.772 208.552C283.533 204.268 283.541 200.789 282.999 197.982C280.75 186.341 269.028 186.241 262.185 188.167C239.007 191.791 237.646 236.738 239.863 258.758L242.468 248.943Z" fill="#EC94E8"/>
<path d="M284.719 405.223C309.184 433.913 304.034 417.932 298.4 406.356C299.689 392.921 301.651 375.702 302.87 362.767L285.328 366.919L284.719 405.223Z" fill="#426A76"/>
<path fill-rule="evenodd" clip-rule="evenodd" d="M254.507 236.117C247.807 241.807 242.834 246.03 242.468 248.943L239.863 258.758L217.922 341.428L229.993 344.07L254.137 271.592C253.823 278.176 253.318 285.168 252.843 291.742C251.793 306.26 250.891 318.741 252.527 320.288L285.524 354.64L285.328 366.919L302.87 362.767C303.85 352.371 304.349 344.743 303.631 344.07C302.499 340.457 296.732 332.919 292.004 326.738C288.334 321.939 285.289 317.959 285.524 317.268C288.282 312.015 293.169 311.984 295.181 312.739C297.365 313.829 302.114 319.773 307.682 326.742C310.114 329.787 312.702 333.027 315.301 336.143L315.931 358.615L329.968 353.33C330.475 339.455 330.627 328.463 329.787 327.083C329.787 324.876 320.691 313.956 311.292 302.672L311.291 302.672C307.828 298.513 304.323 294.306 301.217 290.467L291.157 240.261C318.52 220.933 314.094 213.081 308.46 211.571L282.999 197.982C283.541 200.789 283.533 204.268 282.772 208.552C283.915 201.148 276.181 196.206 270.233 194.207C265.806 196.975 256.39 203.72 254.137 208.552C251.884 213.384 256.686 219.373 259.368 221.764V231.956C257.68 233.422 256.047 234.808 254.507 236.117ZM282.772 208.552L295.181 216.479L278.529 225.406L272.647 228.559V221.764C275.09 219.923 277.027 218.16 278.529 216.479C281.108 213.591 282.403 210.943 282.772 208.552Z" fill="#655695"/>
<path d="M316.91 393.521C337.601 411.464 336.078 404.887 328.177 393.521C328.324 390.323 328.484 386.942 328.647 383.466C329.118 373.495 329.625 362.748 329.968 353.33L315.931 358.615L316.91 393.521Z" fill="#426A76"/>
<path d="M272.647 221.764V228.559L278.529 225.406C277.439 222.884 278.075 218.404 278.529 216.479C277.027 218.16 275.09 219.923 272.647 221.764Z" fill="#EC94E8"/>
<path d="M127.477 278.136L210.37 228.685C216.679 225.004 218.523 223.197 221.637 220.001L234.111 220.38L226.063 211.319L228.075 203.77C232.099 175.08 210.504 177.779 201.92 183.008L106.552 238.122C96.4925 245.672 94.0782 258.129 94.0782 261.904C92.0661 295.5 123.032 282.406 127.477 278.136Z" fill="#9485F3"/>
<path d="M460.163 317.751L452.919 335.871L469.418 321.149C475.15 320.826 477.623 319.913 481.489 317.751L576.454 263.393C583.295 258.863 585.578 256.976 587.721 249.049C596.09 218.094 573.695 214.88 561.566 224.512C543.458 235.459 501.448 260.977 478.27 275.473C455.092 289.968 456.541 309.698 460.163 317.751Z" fill="#A0AAFF"/>
<path d="M114.104 251.587L141.099 235.709M210.679 194.784L157.068 226.317M114.104 261.294L174.178 225.513M210.679 203.772L184.064 219.625M114.104 270.282L135.396 257.838M210.679 213.838L188.626 226.727M148.704 250.06L175.319 234.505" stroke="#723CB8" stroke-width="4" stroke-linecap="round"/>
<defs>
<filter id="filter0_di_217_1030" x="106.69" y="486.961" width="57.092" height="51.0337" filterUnits="userSpaceOnUse" color-interpolation-filters="sRGB">
<feFlood flood-opacity="0" result="BackgroundImageFix"/>
<feColorMatrix in="SourceAlpha" type="matrix" values="0 0 0 0 0 0 0 0 0 0 0 0 0 0 0 0 0 0 127 0" result="hardAlpha"/>
<feOffset dx="-1" dy="4"/>
<feGaussianBlur stdDeviation="2"/>
<feComposite in2="hardAlpha" operator="out"/>
<feColorMatrix type="matrix" values="0 0 0 0 0.879167 0 0 0 0 0.730441 0 0 0 0 0.622743 0 0 0 0.25 0"/>
<feBlend mode="normal" in2="BackgroundImageFix" result="effect1_dropShadow_217_1030"/>
<feBlend mode="normal" in="SourceGraphic" in2="effect1_dropShadow_217_1030" result="shape"/>
<feColorMatrix in="SourceAlpha" type="matrix" values="0 0 0 0 0 0 0 0 0 0 0 0 0 0 0 0 0 0 127 0" result="hardAlpha"/>
<feOffset dy="4"/>
<feGaussianBlur stdDeviation="2"/>
<feComposite in2="hardAlpha" operator="arithmetic" k2="-1" k3="1"/>
<feColorMatrix type="matrix" values="0 0 0 0 0 0 0 0 0 0 0 0 0 0 0 0 0 0 0.25 0"/>
<feBlend mode="normal" in2="shape" result="effect2_innerShadow_217_1030"/>
</filter>
<linearGradient id="paint0_linear_217_1030" x1="355.138" y1="399.383" x2="328.542" y2="665.117" gradientUnits="userSpaceOnUse">
<stop stop-color="#887FB4"/>
<stop offset="1" stop-color="#5C3F73"/>
</linearGradient>
<linearGradient id="paint1_linear_217_1030" x1="533.398" y1="272.925" x2="139.024" y2="547.416" gradientUnits="userSpaceOnUse">
<stop stop-color="#DA8CDD"/>
<stop offset="1" stop-color="#A464B4"/>
</linearGradient>
<linearGradient id="paint2_linear_217_1030" x1="344.273" y1="240.461" x2="283.115" y2="588.787" gradientUnits="userSpaceOnUse">
<stop stop-color="#96D3DF"/>
<stop offset="1" stop-color="#3F5565"/>
</linearGradient>
<linearGradient id="paint3_linear_217_1030" x1="136.236" y1="486.961" x2="131.603" y2="530.303" gradientUnits="userSpaceOnUse">
<stop stop-color="#7E4084"/>
<stop offset="0.748304" stop-color="#9852B0"/>
</linearGradient>
</defs>
</svg>
